<svg width="117" height="25" fill="none" xmlns="http://www.w3.org/2000/svg"><path fill-rule="evenodd" clip-rule="evenodd" d="M15.2126 6.51992c-2.0592-.14769-3.8061 1.11695-4.7797 1.11695-.98907 0-2.5137-1.08511-4.13032-1.05681-2.12209.03183-4.07933 1.19919-5.17316 3.04574-2.20497 3.717-.562859 9.223 1.58473 12.2369 1.05012 1.4751 2.30243 3.1342 3.94819 3.0741 1.58474-.0611 2.18311-.9967 4.09756-.9967 1.9135 0 2.4536.9967 4.1285.9648 1.7041-.0292 2.7851-1.5016 3.8271-2.9847 1.2067-1.7095 1.7031-3.3641 1.7322-3.4543-.0382-.0124-3.3234-1.239-3.3561-4.9135-.0292-3.0714 2.5829-4.54919 2.7022-4.62083-1.4836-2.11981-3.7742-2.35328-4.5812-2.41165zM97.5088 18.5172v.3254c0 3.2076-2.4162 6.0774-7.2652 6.0774-4.8353 0-7.7096-2.9476-7.7096-8.099v-2.1517c0-5.09833 2.888-8.13788 7.7224-8.13788 4.5392 0 7.2524 2.77866 7.2524 6.24718v.1821h-3.6403c0-1.7599-1.1549-3.32517-3.5857-3.32517-2.5921 0-3.8954 1.68207-3.8954 5.03377v2.1517c0 3.3906 1.2906 4.9692 3.9218 4.9692 2.6194 0 3.5593-1.4353 3.5593-3.273h3.6403zm-66.2001 1.017h.0537l3.2642-12.71537h3.8544l3.2769 12.71537h.0537l3.0365-12.71537h4.0557L43.8135 24.621h-3.8553l-3.3707-12.1688h-.0674L33.1484 24.621h-3.827l-5.104-17.80217h4.0566l3.0347 12.71537zm74.0433-5.5688h7.494V6.81883h3.815V24.621h-3.815v-7.5904h-7.494v7.5904h-3.8V6.81883h3.8v7.14657zM80.0758 6.81883v3.07758h-5.4655V24.621h-3.7879V9.89641h-5.4528V6.81883h14.7062zm-20.536 0l5.8963 17.80137h-4.0702l-1.307-4.4864H54.26l-1.3279 4.4864h-3.8006l5.91-17.80137h4.4983zm-.276 10.57697l-2.0602-7.0687h-.04l-2.0921 7.0687h4.1923zM13.8583 4.62473c-.8798.97987-2.2651 1.72539-3.6248 1.62369-.1931-1.39375.5173-2.84765 1.326-3.75677.9026-1.02409 2.4245-1.790834 3.6832-1.838589.1621 1.420289-.4272 2.851179-1.3015 3.875279l-.041.04864-.0419.04775z" fill="#D6DAE5"/></svg>