<svg width="117" height="25" fill="none" xmlns="http://www.w3.org/2000/svg"><path fill-rule="evenodd" clip-rule="evenodd" d="M82.2614 16.4009c-1.694-.4245-1.694-.4422-1.694-1.3442 0-.6076.0619-.8977 1.4572-.8977.9581 0 2.368.1592 3.2751.3131.1239.0177.2514-.0088.3534-.0884.102-.0708.1676-.1857.1822-.3096l.2586-2.0207c.0182-.23-.1275-.4422-.3643-.4953-1.0565-.2352-2.5137-.3891-3.7159-.3891-4.2078 0-5.0639 1.5388-5.0639 3.8505 0 2.5408.4827 3.396 3.7014 4.1565 2.1202.4953 2.1202.8623 2.1202 1.4725 0 .8012-.0728 1.0789-1.4572 1.0789-1.1184 0-2.4117-.168-3.5484-.4634-.1275-.0301-.255-.0106-.3643.0531-.1093.0689-.1876.1768-.2113.3007l-.3479 1.9287c-.0419.2211.0911.4378.3097.5068 1.2423.3891 3.0237.6544 4.3316.6544 4.0693 0 4.8999-1.6626 4.8999-4.1388 0-2.7415-.4991-3.2545-4.1276-4.1866l.0055.0177v.0009zm-10.5522 0c-1.694-.4245-1.694-.4422-1.694-1.3442 0-.6076.0619-.8977 1.4572-.8977.9563 0 2.368.1592 3.2752.3131.1238.0177.2513-.0088.3533-.0884.102-.0708.1676-.1857.1822-.3096l.2586-2.0207c.0292-.23-.1238-.4422-.3552-.4953-1.0382-.2352-2.4955-.3891-3.6977-.3891-4.1968 0-5.0639 1.5388-5.0639 3.8505 0 2.5408.4919 3.396 3.7087 4.1565 2.1203.4953 2.1203.8623 2.1203 1.4725 0 .8012-.0729 1.0789-1.4573 1.0789-1.1202 0-2.4135-.168-3.552-.4634-.1275-.0301-.255-.0106-.3643.0531-.1093.0689-.1876.1768-.2113.3007l-.3643 1.919c-.0364.2211.0911.4387.3152.5076 1.2386.3892 3.0201.6545 4.3297.6545 4.0621 0 4.9-1.6626 4.9-4.1388 0-2.7416-.5064-3.2545-4.1349-4.1866l-.0055.0177v.0097zM34.3586 7.10979c-.0601-.18749-.2368-.31483-.4408-.31483h-4.3143c-.2004 0-.3826.12646-.4427.31218L23.7172 23.8561c-.0419.1326-.0182.283.0692.3979.0874.115.2259.1831.3734.1831h2.9691c.2058 0 .3862-.1327.4445-.3184l3.7496-12.328s.1002-.3095.4372-.3095c.3461 0 .4371.3184.4371.3184l1.7396 5.8456h-2.3316c-.2003 0-.3825.1353-.4371.3272l-.674 2.317c-.0364.1327 0 .283.0729.3892.091.1123.2368.1768.3825.1768h3.98l1.0474 3.266c.0583.1857.2368.313.4372.313h2.9691c.1457 0 .2878-.0707.3752-.1857.0911-.1167.1166-.2653.0729-.4015L34.3823 7.07972l-.0182.0283-.0055.00177zm56.7409 4.32811h-2.7323c-.255 0-.4609.2007-.4609.4483v12.1335c0 .2476.2077.4528.4627.4528h2.7323c.255 0 .4618-.2008.4618-.4511V11.8907c0-.2477-.2004-.4449-.4554-.4449l-.0091-.0071.0009-.0008zM52.3554 6.46774h-2.7323c-.255 0-.4609.20075-.4609.44837V24.0197c0 .2476.2077.4528.4627.4528h2.7323c.255 0 .4609-.2008.4609-.4511V6.92054c0-.24763-.2004-.44484-.4554-.44484l-.0073-.00707v-.00089zM113.778 11.177c-1.444 0-3.416.4846-5.082 1.2452l-.201-.6545c-.054-.1945-.237-.3228-.442-.3228h-2.021c-.255 0-.465.2008-.465.4484v12.1335c0 .2476.2.451.455.451h2.733c.255 0 .464-.1999.464-.451v-8.4015c.984-.4864 2.368-.9905 3.191-.9905.615 0 .843.2247.843.8225v8.5606c0 .2512.21.451.465.451h2.732c.255 0 .461-.1998.461-.451v-8.9082c0-2.6044-1.057-3.9265-3.135-3.9265h-.002l.004-.0062zM10.5056 18.3907c-.0729-.0707-.1767-.1459-.3552-.1459-.22774 0-.36071.1521-.41172.2264-1.27507 1.8925-1.93083 3.6789-2.0219 5.4742-.00274.1326.04827.2653.14117.3626.09107.1061.22769.1592.3643.1592h3.02735c.2642 0 .4828-.1946.501-.4422.0728-.8667.3461-1.7334.8561-2.6354.173-.3184.0364-.6102-.0638-.7367-.5009-.6367-1.1138-1.3088-2.0246-2.2339l-.0036-.0177-.0091-.0106zm50.7088 1.2912v1.5626c-.4462.2477-1.2659.5837-2.2587.5837-.847 0-1.1111-.2476-1.1111-1.0789 0-.7959.1639-1.0471 1.1658-1.0471h2.204V19.6819zm38.8166 0v1.5626c-.455.2477-1.2747.5837-2.2583.5837-.847 0-1.1111-.2476-1.1111-1.0789 0-.7959.1639-1.0471 1.1658-1.0471h2.2036V19.6819zm-52.724 2.1976c-.0182-.1273-.0911-.2388-.2004-.3095-.1093-.0708-.2386-.092-.3661-.0619-.4918.1167-.9472.1804-1.3115.1804-.674 0-.9836-.283-.9836-.9197v-6.4294h2.6503c.255 0 .4627-.2034.4627-.451v-2.0075c0-.2476-.2095-.451-.4645-.451h-2.6413V8.34436c0-.13266-.0619-.25381-.1639-.34048-.1002-.08578-.2368-.12381-.3643-.10612l-2.7323.37143c-.2295.02918-.4007.21844-.4007.44218v2.72383h-1.491c-.255 0-.4626.2008-.4626.4484v2.0163c0 .2476.2185.4528.4736.4528h1.4863v6.8361c0 2.3498 1.2696 3.5375 3.7761 3.5375.7104 0 1.9235-.1592 2.7141-.4245.2094-.0708.3388-.2768.3042-.4953l-.296-1.919.0091-.0133.0018.0053zm12.0759-10.6963c-1.3844 0-3.0675.2122-4.2897.5394-.2368.0619-.3826.2786-.3461.5041l.3151 1.9279c.0182.1176.0911.2238.1913.2945.102.0708.2295.0884.3533.0708 1.1348-.2123 2.3079-.3361 3.3007-.3361 1.9672 0 2.2842.4068 2.2842 1.698v1.132h-2.9145c-2.7942 0-3.9892 1.1143-3.9892 3.7497 0 2.5115 1.3115 3.9442 3.5885 3.9442 1.3242 0 2.6467-.3537 3.7578-1.0082l.1184.4122c.0546.1945.2368.3272.4463.3272h2.2186c.255 0 .4609-.2034.4609-.4511v-8.0653c0-3.4667-1.4846-4.7579-5.4829-4.7579l-.0164.0088.0037.0098zm38.8106 0c-1.3844 0-3.0602.2122-4.2806.5394-.2277.0619-.3734.2786-.3325.5041l.3188 1.9279c.0182.1176.0911.2238.1913.2945.1038.0708.2313.0884.3552.0708 1.1293-.2123 2.2951-.3361 3.2969-.3361 1.9673 0 2.2774.4068 2.2774 1.698v1.132h-2.9149c-2.8052 0-4.0001 1.1143-4.0001 3.7497 0 2.5115 1.3088 3.9442 3.5884 3.9442 1.3234 0 2.6413-.3537 3.7526-1.0082l.118.4122c.055.1945.237.3272.446.3272h2.205c.255 0 .464-.2034.464-.4511v-8.0653c0-3.4667-1.485-4.7579-5.4828-4.7579l.0046.0088-.0073.0098zM22.7882 6.5491c-.0911-.06632-.1958-.09993-.3033-.09993-.0729 0-.1275.01061-.1822.03184-1.0929.4015-2.1858.70749-3.1876.93212-.2004.05306-.3789.19456-.4372.37143-.7286 1.94559-2.6048 3.80274-4.5539 5.73064-.0728.0708-.1821.1769-.3643.1769-.1821 0-.2914-.0884-.3643-.1645-1.9672-1.9367-3.82521-3.77622-4.55382-5.72182-.07287-.17687-.2368-.31837-.43717-.37143-1.00185-.22993-2.11299-.53946-3.1877-.93742-.05464-.01769-.12386-.02653-.18215-.02653-.10929 0-.21494.03537-.3042.09993-.13843.09728-.20947.26531-.19308.42449.16394 1.61485.8288 3.19258 2.0128 4.84628 1.12025 1.5565 2.56837 2.998 3.98002 4.39 2.5866 2.5647 5.0366 4.9878 5.2534 7.8001.0182.2511.2368.4475.4954.4475h3.042c.1366 0 .2696-.0531.3643-.1504s.1457-.2264.1366-.359c-.0965-1.8775-.8251-3.7586-2.2277-5.751-.2915-.4157-.6011-.8225-.9318-1.2205-.1329-.1591-.0765-.3625.0256-.4616l.3096-.3042c1.409-1.3885 2.8598-2.83 3.9801-4.3865 1.184-1.6493 1.8397-3.21903 2.0082-4.83299.0182-.16361-.0583-.33606-.1931-.43599l.0091-.01327-.0136-.01415zm-9.0166 1.45036c.9535 0 1.5073-.05925 1.7004-.05925.2186 0 .4554.17687.4554.44218 0 .07075-.0183.12381-.0365.17687-.1275.32544-.7104 1.50694-1.7851 2.52044-.1275.1132-.255.1344-.3461.1344-.091 0-.2368-.0212-.3588-.1344-1.0747-1.0135-1.6503-2.19323-1.776-2.52398-.0182-.05306-.0364-.10612-.0364-.18571 0-.25647.224-.45103.459-.45103.1949 0 .7468.05306 1.7013.05306h.0036l.0183.01769.0009.00973zm77.3261-1.5273h-2.725c-.2551 0-.4627.19456-.4627.44218v2.33472c0 .24762.2076.44926.4627.44926h2.7323c.255 0 .4617-.19456.4617-.44218V6.90285c0-.24762-.2067-.4466-.4617-.4466l-.0073.02122v-.00531zM27.0779.902451c-.1211-.159185-.3097-.247621-.51-.247621-.1029 0-.205.021224-.2915.070749C22.5423 2.70655 18.2189 3.7554 13.767 3.75717c-4.45 0-8.77433-1.05062-12.50484-3.03336C1.17108.670748 1.07089.653061.97071.653061c-.200369 0-.391631.088436-.510031.247621-.176689.212248-.182154.601368.1184.831298C2.44616 3.07621 4.50632 4.13745 6.69945 4.86263c2.27692.74286 4.65225 1.13198 7.06755 1.13198 2.4172 0 4.7943-.38912 7.0676-1.13198 2.1949-.72518 4.2551-1.78642 6.1258-3.13065.3006-.22993.2915-.61905.1184-.848985v.019456h-.0009z" fill="#D6DAE5"/></svg>