<svg width="117" height="29" fill="none" xmlns="http://www.w3.org/2000/svg"><path fill-rule="evenodd" clip-rule="evenodd" d="M105.843 17.6368c0-2.3037-.97-4.9701-3.987-8.68706L94.5785 0H84.4471l5.7679 6.27897c.9718 1.04708 2.2095 1.98805 2.2095 1.98805-1.4026-.78443-3.1785-1.09838-4.5811-1.09838-3.3407 0-6.7361.68096-9.7544 2.30288-3.2332 1.72628-5.3917 4.60488-5.3917 8.42618 0 2.9299 1.3497 5.1806 3.0738 6.9069 3.8799 3.77 10.9411 4.1353 13.5286 4.1353 3.827 0 9.8108-.8384 13.2043-3.8205 1.996-1.7793 3.343-4.2387 3.343-7.4817l-.004-.0009zM117 7.74524h-8.785V28.2598H117V7.74524zM44.7786 28.2598L25.3746 0H14.4882l3.0083 3.45343L.421387 28.2598H10.2304l2.9263-4.6571H31.658l2.9874 4.6553h10.1332v.0018zm25.7082-8.5827V7.74524H61.973v9.15846c0 2.6177-.1093 3.3482-.2705 4.0283-.592 1.8837-2.6413 2.7203-4.7451 2.7203-2.9099 0-4.2579-1.0993-4.7952-2.8265-.164-.5748-.2159-1.2009-.2696-1.8306-.0547-.6792 0-1.4123 0-2.1976V7.74524h-8.6232V19.7283c0 2.6708.9153 4.658 2.4245 6.0199 2.5866 2.4585 6.9528 3.1925 10.9957 3.1925 4.9054 0 8.6796-.6809 11.3737-3.2456 1.4026-1.3088 2.4263-3.0351 2.4263-6.018h-.0028zm26.9497-1.7794c0 2.1446-1.4554 3.7674-3.2879 4.6571-1.5082.7853-3.2879.994-4.8516.994-1.5629 0-3.3954-.3122-4.9045-1.0462-1.8325-.8888-3.2333-2.616-3.2333-4.5014 0-2.2489 1.7779-4.0283 3.8799-4.9188 1.2933-.5766 2.8571-.7853 4.0957-.7853 1.1859 0 2.9118.1565 4.2579.6809 2.4263.9949 4.0438 2.8777 4.0438 4.9197zm-69.1984.1902H16.5119l5.8435-9.3619 5.8836 9.3619h-.0009z" fill="#D6DAE5"/></svg>