<svg width="117" height="29" fill="none" xmlns="http://www.w3.org/2000/svg"><path fill-rule="evenodd" clip-rule="evenodd" d="M14.9321 23.2004c-.1704 0-.2551.0831-.2551.0831s-2.1339 1.6626-5.9746 1.6626c-3.83889-.0009-5.97009-1.6635-5.97009-1.6635s-.17032-.0822-.25502-.0822c-.17122 0-.34245.0831-.34245.3316v.0822c.34154 1.7405.59747 2.983.59747 3.1484C2.98732 28.006 5.5484 29 8.61952 29c3.07198 0 5.63218-.994 5.88808-2.2374 0-.1654.2551-1.4079.592-3.1484v-.0822c.082-.1663 0-.3316-.173-.3316h.0055zm17.321-4.0593c1.1093-.5801 1.5364-1.4088 1.5364-2.6531v-1.7395c0-2.4851-1.5364-3.7267-4.7788-3.7267h-6.4846c-.2551 0-.4263.1663-.4263.4157v16.2368c0 .2494.1703.4157.4263.4157h6.9965c3.072 0 4.8635-1.4919 4.8635-4.0592v-1.7422c0-1.4902-.7678-2.6496-2.133-3.1484v.0009zm6.6559-3.6462h-2.6413c-.255 0-.428.1663-.428.4157v11.7637c0 .2477.173.4157.428.4157h2.6504c.255 0 .428-.168.428-.4157V15.9097c0-.2476-.173-.4157-.428-.4157l-.0091.0009zm63.572-.2476c-3.5797 0-5.3739 1.7395-5.3739 4.9701v3.2315c0 3.3145 1.7942 4.8887 5.5469 4.8887 1.539 0 3.16-.2476 4.526-.7464.171-.0822.341-.2476.255-.497l-.426-1.8218c0-.084-.085-.2494-.17-.2494-.086-.0831-.255-.0831-.342-.0831-1.193.3316-2.388.4979-3.497.4979-1.963 0-2.304-.5802-2.304-1.9058v-.4157h6.57c.255 0 .428-.1645.428-.413v-2.3196c-.086-3.48-1.707-5.1382-5.205-5.1382l-.008.0018zM55.6398 25.3555c-.6831 0-1.1931 0-1.7031-.084v-6.3851c.7686-.336 1.7923-.6632 2.5592-.6632 1.0246 0 1.4518.4156 1.4518 1.3265v3.7232c0 1.4088-.3416 2.072-2.3043 2.072l-.0036.0106zm60.6662.2477c0-.0832-.082-.2477-.167-.3317-.085-.0884-.255-.0884-.341-.0884-.512.0796-.938.168-1.28.168-.683 0-.938-.2476-.938-.9109v-6.217h2.559c.255 0 .425-.1681.425-.4157v-1.9014c0-.2476-.17-.4156-.425-.4156h-2.56v-2.9803c0-.168-.087-.2521-.173-.3343-.085-.0831-.255-.0831-.341-.0831l-2.644.336c-.255 0-.428.2476-.428.413v2.6513h-1.448c-.255 0-.429.1663-.429.4157v1.904c0 .2476.174.4157.429.4157h1.448v6.6256c0 2.2374 1.196 3.396 3.67 3.396.683 0 1.876-.1636 2.645-.4157.171-.0796.342-.2476.255-.4952l-.255-1.7387-.002.0027zm-67.4897 0c0-.0832-.0847-.2477-.1703-.3317-.0847-.0884-.255-.0884-.3406-.0884-.4281.0796-.9381.168-1.2797.168-.683 0-.9381-.2476-.9381-.9109v-6.217h2.5593c.255 0 .4281-.1681.4281-.4157v-1.9014c0-.2476-.1731-.4156-.4281-.4156h-2.562v-2.9803c0-.168-.0856-.2521-.1712-.3343-.0856-.0831-.255-.0831-.3416-.0831l-2.643.336c-.255 0-.4253.2476-.4253.413v2.6513h-1.4554c-.2551 0-.4281.1663-.4281.4157v1.904c0 .2476.1712.4157.4281.4157h1.4499v6.6256c0 2.2374 1.1931 3.396 3.6677 3.396.683 0 1.8762-.1636 2.6412-.4157.173-.0796.3415-.2476.255-.4952l-.255-1.7387.0091.0027zm35.4107-.1654c0-.0831-.0856-.2494-.1703-.3316-.0847-.0832-.255-.0832-.3406-.0832-.7678.1654-1.5356.2476-2.3043.2476-1.7059 0-2.133-.413-2.133-1.8217v-3.396c0-1.4097.5118-1.8235 2.133-1.8235.4281 0 1.3662.0831 2.3043.2476.0847 0 .255 0 .3406-.0823.0838-.0822.1694-.1653.1694-.3316l.3434-1.9881c0-.2476-.0866-.4138-.3425-.497-1.0228-.3316-2.2177-.4156-2.8999-.4156-4.011 0-5.6331 1.4097-5.6331 4.8905v3.3128c0 3.48 1.6212 4.8888 5.6304 4.8888.9381 0 2.0474-.1654 2.9008-.4157.255-.0813.3415-.2476.3415-.4952l-.3424-1.9058h.0027zm-58.5351-.3316h3.1585c1.3662 0 1.8762-.3317 1.8762-1.4088v-1.247c0-1.0789-.4244-1.4946-1.6212-1.4946h-1.1111c-.255 0-.4281-.168-.4281-.4156v-2.0597c0-.2494.1731-.4156.4281-.4156h.5975c1.1093 0 1.5355-.4139 1.5355-1.4079v-1.4928c0-.5802-.1657-1.1603-1.5301-1.1603h-2.9135v11.1023h.0082zm47.952-9.6113h-2.6413c-.255 0-.428.1663-.428.4157v8.1184c-.9381.497-2.3043.994-3.0693.994-.5984 0-.8561-.2476-.8561-.8286v-8.2785c0-.2477-.1731-.4157-.4281-.4157h-2.6494c-.255 0-.4263.168-.4263.4157v8.6163c0 2.4851 1.0219 3.8116 3.0693 3.8116 1.3662 0 3.328-.4979 4.9491-1.2434l.1704.6633c.0883.1662.2595.3325.428.3325h1.9645c.2551 0 .4263-.168.4263-.4157V15.9097c-.0856-.1681-.255-.4157-.5119-.4157l.0028.0009zM8.70604 9.53077C3.92541 9.53077 0 10.7715 0 12.3457c0 .4156 1.0237 6.2967 1.45086 8.6172.17031 1.0763 2.98732 2.5682 7.25245 2.5682 4.26609 0 6.99649-1.4857 7.25249-2.5646.4189-2.3171 1.4481-8.1981 1.4481-8.6137-.0911-1.5742-3.9254-2.81584-8.70697-2.81584l.00911-.00619zm0 12.09543c-1.53464 0-2.72957-1.1603-2.72957-2.6513 0-1.4946 1.1931-2.6531 2.72866-2.6531 1.53557 0 2.73047 1.1585 2.73047 2.6531 0 1.4061-1.1949 2.6442-2.73047 2.6442l.00091.0071zm87.88736 5.7165l-3.4991-5.6334 3.4153-5.5449c.0847-.1681.0847-.329 0-.4157-.0865-.1618-.2568-.2476-.428-.2476h-2.9008c-.1712 0-.3425.0858-.4281.2476l-3.2423 5.4733V11.1049c0-.2494-.1731-.4156-.4281-.4156h-2.6458c-.255 0-.428.1662-.428.4156v16.4845c0 .2477.173.4157.428.4157h2.6449c.255 0 .4281-.168.4281-.4157v-5.3857l3.4099 5.6334c.0856.168.255.2502.3415.2502h2.8999c.255 0 .4281-.1662.4281-.4156.0838-.1645.0838-.2476 0-.3308l.0045.0018zm4.0106-7.0395v-.4157c0-1.2381.596-1.7333 1.876-1.7333 1.451 0 1.707.6633 1.707 1.7422v.4156h-3.583v-.0088zM8.70695 17.5696c.7523 0 1.36615.5996 1.36615 1.3266 0 .734-.61385 1.3265-1.36615 1.3265-.75229 0-1.36615-.5925-1.36615-1.3265 0-.727.61204-1.3266 1.36615-1.3266zm48.72065-2.317c-1.2796 0-2.6448.3343-3.4973.6633v-4.7225c0-.2477-.1712-.4157-.4281-.4157h-2.6449c-.255 0-.428.168-.428.4157v16.4049c0 .2476.173.4156.3415.4156 1.6212.2477 3.5839.4157 4.6932.4157 4.9491 0 5.9728-2.0712 5.9728-5.1382v-3.5639c0-2.9803-1.3661-4.4749-4.0101-4.4749h.0009zM36.2668 13.758c-.255 0-.428-.1662-.428-.4156v-2.2375c0-.2494.173-.4156.428-.4156h2.6458c.2568 0 .4281.2494.4281.4156v2.2357c0 .2476-.1713.4157-.4281.4157h-2.6458v.0017zm-27.56167-.5837c-3.07294 0-5.54658-.4952-5.54658-1.1585 0-.6632 2.47364-1.1603 5.54658-1.1603 3.07107 0 5.54657.4971 5.54657 1.1586 0 .6632-2.4755 1.1611-5.54657 1.1611v-.0009zM42.92 6.63006c-.4262 0-1.1093-.16626-1.4509-.41565-.0819 0-.0819-.08136-.0819-.16449l.1703-.66327.082-.08225h.1703c.428.08844.8524.16803 1.2787.16803.5191 0 .5191-.15918.5191-.41565 0-.15918 0-.32721-.7696-.49524-1.1931-.24762-1.3661-.57484-1.3661-1.48573 0-.82776.2568-1.40613 1.7942-1.40613.4253 0 1.0228.07959 1.3661.16449 0 0 .082.08313.082.16537l-.0847.74287-.0847.08313h-.1712c-.1512 0-.3334-.01504-.5192-.03272l-.1612-.01592c-.1858-.01769-.3679-.03538-.5173-.03538-.5118 0-.5118.08225-.5118.33075 0 .33606 0 .33606.5974.50055 1.2787.33252 1.4482.58103 1.4482 1.57417 0 .90558-.337 1.48396-1.7578 1.4928h-.0328l.0009-.00973zm-3.7569 0c-.5101 0-1.1084-.16626-1.7059-.41565-.0856 0-.0856-.08136-.0856-.16449l.1712-.66327.0911-.08225h.173c.4254.08844.8525.16803 1.2788.16803.51 0 .51-.15918.51-.41565 0-.15918 0-.32721-.7669-.49524-1.1931-.24762-1.3661-.57484-1.3661-1.48573 0-.82776.2577-1.40613 1.7942-1.40613.4262 0 1.0237.07959 1.3661.16449.0838 0 .1694.08313.1694.16537l-.0838.7464-.0837.08225h-.0911c-.1485 0-.3306-.01769-.5164-.03537l-.1603-.01504c-.1858-.01769-.368-.03184-.5192-.03184-.5191 0-.5191.0796-.5191.32722 0 .3334 0 .3334.5993.49878 1.2796.3334 1.4508.58191 1.5355 1.57416 0 .90647-.3369 1.48573-1.7577 1.49458h-.0328v-.01062zm15.4466-4.88875c-.5128 0-1.1958.16626-1.878.41565l-.0856-.24939c0-.08313-.0847-.08313-.1703-.08313h-.7678c-.0856 0-.1712.08313-.1712.16537v4.39263c0 .08136.0856.16449.1712.16449h1.0237c.0856 0 .1703-.08313.1703-.16537V3.3137c.3416-.16537.8534-.33075 1.1949-.33075.2551 0 .3416.08225.3416.33075v3.06874c0 .08136.0847.16449.1703.16449h1.0201c.0819 0 .173-.08313.173-.16537V3.14568c-.0911-.99403-.4281-1.40879-1.1931-1.40879l.0009.00442zm-8.1924.08313h-1.0246c-.0847 0-.1694.08313-.1694.16537v4.39263c0 .08136.0847.16449.1703.16449h1.0292c.0893 0 .1731-.08313.1731-.16537v-4.3944c0-.08224-.0838-.16537-.1731-.16537l-.0055.00265zM32.4234.00265309h-1.0237c-.0847 0-.1703.08224561-.1703.16449091V6.38244c0 .08136.0819.16449.1639.16449h1.0292c.0819 0 .1675-.08313.1675-.16537V.165376C32.59.08313 32.5044-1e-8 32.4197-1e-8l.0037.0026531zM25.9387.250274c0-.08313-.0847-.08313-.1703-.08313h-1.5356c-.0856 0-.1712.08313-.1712.08313L22.0943 6.29931v.16449c0 .08313.082.08313.1667.08313h1.1112c.0837 0 .1684-.08313.1684-.08313l1.3662-4.47487s0-.08136.1703-.08136c.0838 0 .1694.08224.1694.08224l.5984 2.07206h-.8543c-.0874 0-.1731.08225-.1731.08225l-.255.82246v.16272s.0847.08313.1703.08313h1.4482l.3424 1.16028c0 .08136.0856.08136.1712.08136h1.1112c.0856 0 .0856 0 .173-.08401v-.16803L25.9387.24939v.000884zm8.7889 5.302636c.4281 0 .6831-.08313.8534-.16538v-.66327h-.8534c-.3415 0-.4262.16538-.4262.41388 0 .32899.0838.413.4189.41565h.0073v-.00088zm-4.0957 0c0-.08313 0-.08313-.0847-.08313h-.1712c-.1703.08313-.3416.08313-.5119.08313-.255 0-.3415-.08313-.3415-.33164V2.81846h.9381c.0865 0 .1712-.08224.1712-.16537v-.66328c0-.08224-.0847-.16537-.1703-.16537h-.9381V.664156c0-.082246 0-.082246-.0856-.082246 0 0-.0856-.079592-.1712 0l-1.0238.168029c-.0856 0-.1703.088436-.1703.168029v.990482h-.5118c-.082 0-.164.08667-.164.16803v.74729c0 .08401.0875.16803.1731.16803h.5128v2.48505c0 .82777.4262 1.24253 1.3661 1.24253.255 0 .6813-.08401.9381-.16803.3406-.16537.3406-.16537.3406-.24762l-.0856-.7464-.01-.00442zm18.1744 0c.4281 0 .6831-.08313.8534-.16538v-.66327h-.8534c-.3406 0-.4262.16538-.4262.41388 0 .32899.0837.413.4189.41565h.0073v-.00088zm-13.8237-3.8116c-.51 0-1.1084.08313-1.5346.16626-.0856 0-.1703.08224-.0856.16537l.0911.66328c0 .08224 0 .08224.0892.08224h.0847c.4281-.08224.8534-.08224 1.1931-.08224.6831 0 .8543.16537.8543.57925v.41565h-1.0291c-1.0247 0-1.4509.413-1.4509 1.32478 0 .91089.5118 1.4079 1.2796 1.4079.5101 0 .9381-.16537 1.3644-.33075v.16538c0 .08313.0856.08313.1703.08313h.7687c.0819 0 .173-.08844.173-.16803V3.3933c0-1.24253-.51-1.6573-1.96-1.6573l-.0082.00531zm13.9949 0c-.5118 0-1.1093.08313-1.5365.16626-.091 0-.173.08224-.091.16537l.0819.66328c0 .08224 0 .08224.0847.08224h.0857c.428-.08224.8533-.08224 1.1931-.08224.683 0 .8561.16537.8561.57925v.41565h-1.0164c-1.0228 0-1.45.413-1.45 1.32478 0 .91089.5119 1.4079 1.2806 1.4079.5118 0 .9381-.16537 1.3661-.33075l.0838.16538c0 .08313.0856.08313.1712.08313h.7678c.0856 0 .1703-.08844.1703-.16803V3.3933c-.0847-1.24253-.5974-1.6573-2.0474-1.6573v.00531zM46.4183.00176874h-1.0256c-.0847 0-.1694.08312996-.1694.16537526v.828648c0 .079588.0847.159188.1703.159188h1.0292c.0893 0 .1731-.0849.1731-.168032V.165376C46.5959.08313 46.5121-1e-8 46.4228-1e-8l-.0045.00176875z" fill="#D6DAE5"/></svg>