<svg width="117" height="23" fill="none" xmlns="http://www.w3.org/2000/svg"><path fill-rule="evenodd" clip-rule="evenodd" d="M115.316 20.0765c.795 0 1.428.6279 1.428 1.415 0 .7959-.633 1.415-1.435 1.415-.794 0-1.439-.6191-1.439-1.415 0-.7871.645-1.415 1.439-1.415h.007zm-91.9399 2.6407h-3.9346l-.1676-.9639c-1.7978.9639-3.4008 1.1214-4.4573 1.1214-2.8871 0-4.4226-1.8678-4.4226-4.4537 0-3.0493 1.7923-4.1388 4.9983-4.1388h3.2605v-.658c0-1.5564-.1821-2.0128-2.6594-2.0128h-4.0238l.3953-3.82042h4.4135c5.4137 0 6.6013 1.6626 6.6013 5.86512v9.0611h-.0036zm58.617-5.9906c0 3.1129-1.3242 6.1321-6.8672 6.1321-5.5484 0-6.8981-3.0192-6.8981-6.1321v-3.0069c0-3.1129 1.3479-6.13212 6.8963-6.13212 5.5557 0 6.8854 3.01922 6.8854 6.13392v3.0068l-.0164-.0017zm15.1152 0c0 3.1129-1.3261 6.1321-6.8672 6.1321-5.5503 0-6.9-3.0192-6.9-6.1321v-3.0069c0-3.1129 1.3479-6.13212 6.8982-6.13212 5.5374 0 6.8671 3.01922 6.8671 6.13392v3.0068l.0019-.0017zm18.2007 3.5728c-.637 0-1.166.5306-1.166 1.1903 0 .6722.529 1.1992 1.173 1.1992.647.0177 1.166-.5129 1.166-1.185 0-.6544-.519-1.1886-1.166-1.1886h-.007v-.0159zM7.24451 22.6872H2.52673V11.615H.166016V7.79452H2.52491v-2.2905c0-3.11295 1.32972-4.966575 5.11488-4.966575H10.791V4.35789H8.82378c-1.47544 0-1.5738.53062-1.5738 1.52818l-.01822 1.91022H10.802l-.419 3.82041H7.23358v11.0722l.01093-.0017zm107.79349-.3715h-.259v-1.5794c.146-.0177.273-.0354.474-.0354.249 0 .411.0478.51.1167.098.0708.145.1769.145.3272 0 .207-.138.3326-.309.3839v.0123c.138.0248.236.1486.273.3821.036.2441.073.3396.098.3891h-.273c-.036-.0495-.078-.1946-.109-.3997-.037-.2034-.146-.2777-.35-.2777h-.182v.6792l-.018.0017zm0-.8755h.187c.213 0 .394-.076.394-.2706 0-.138-.102-.2759-.394-.2759-.084 0-.145.0053-.187.0124v.5341zm-99.9244-3.0776c0 .8349.408 1.2682 1.3042 1.2682.9654 0 1.5337-.3042 2.2368-.619v-1.6715h-2.1057c-.9982 0-1.4353.1769-1.4353 1.0206v.0017zm45.0685-6.9617c-.9655 0-1.6577.3007-2.3608.6191v7.0395c.674.0619 1.0602.0619 1.7013.0619 2.3134 0 2.6267-1.0258 2.6267-2.4585v-3.3677c0-1.0541-.3643-1.9049-1.9672-1.9049v.0106zm14.9275 0c-1.6066 0-2.1622.849-2.1622 1.8926v3.8558c0 1.0612.5556 1.9102 2.1622 1.9102 1.6029 0 2.1603-.849 2.1603-1.9102v-3.8558c0-1.0542-.5647-1.9049-2.1676-1.9049l.0073.0123zm-38.3562.4776c-2.4481-.4068-3.1512-.4952-4.3279-.4952-2.1167 0-2.756.4474-2.756 2.1932v3.2898c0 1.7422.6375 2.1932 2.756 2.1932 1.1785 0 1.8798-.0884 4.3279-.4952v3.7214c-2.1439.4687-3.541.5907-4.7214.5907-5.0675 0-7.0821-2.5823-7.0821-6.3143v-2.6708c0-3.7391 2.0146-6.32671 7.0821-6.32671 1.1804 0 2.5775.12381 4.7214.59252v3.72139zm14.7727 4.6871h-8.6559v.3007c0 1.7422.6375 2.1932 2.7541 2.1932 1.9035 0 3.0602-.0884 5.5047-.4952v3.7214c-2.3552.4687-3.583.5907-5.8963.5907-5.0639 0-7.0676-2.5823-7.0676-6.3143v-3.0599c0-3.2668 1.4937-5.94292 6.6851-5.94292 5.2005 0 6.685 2.64422 6.685 5.94292v3.0599l-.0091.0035zm38.6967-5.1647c-1.6029 0-2.1585.849-2.1585 1.8979v3.8611c0 1.0612.5556 1.9102 2.1585 1.9102 1.603 0 2.1677-.849 2.1677-1.9102V13.297c0-1.0559-.5647-1.9067-2.1677-1.9067v.0106zm22.3992 11.2845h-5.113l-4.328-7.0041v7.0041h-4.7175V1.67827l4.7175-.760549V14.4396l4.326-6.65039h5.101l-4.727 7.25179 4.723 7.6409.018.0035zM44.8374 11.0118c-1.6029 0-1.9672.849-1.9672 1.9102v.589h3.9345v-.5943c0-1.0435-.3643-1.8996-1.9673-1.8996v-.0053zm22.0333 5.6246c0 3.6082-1.0747 6.2436-7.5229 6.2436-2.3243 0-3.6905-.2017-6.2588-.5837V1.67473l4.7178-.760547V8.12527c1.02-.36789 2.3406-.55361 3.5429-.55361 4.7177 0 5.501 2.05172 5.501 5.34684v3.732l.02-.0141z" fill="#D6DAE5"/></svg>