<svg width="18" height="14" fill="none" xmlns="http://www.w3.org/2000/svg"><path fill-rule="evenodd" clip-rule="evenodd" d="M17.0328 1.84041c-.6075.2772-1.2602.46376-1.9451.54857.6991-.43091 1.2362-1.11304 1.489-1.92556-.6545.398839-1.3794.68849-2.151.84458C13.8081.631966 12.9276.210602 11.9535.210602c-1.8703 0-3.38719 1.558258-3.38719 3.479568 0 .27296.02967.5385.08771.79317C5.83853 4.33759 3.3424 2.95159 1.67204.847419 1.38053 1.36154 1.2135 1.95887 1.2135 2.59648c0 1.20711.59797 2.27205 1.50655 2.89655-.55464-.01855-1.07729-.17491-1.5339-.43594v.04372c0 1.68679 1.16861 3.09266 2.71643 3.41266-.28376.0795-.58301.1219-.89077.1219-.21824 0-.43081-.0212-.63719-.06227.43081 1.38281 1.68197 2.3888 3.16402 2.4169-1.15933.9328-2.61996 1.4893-4.20751 1.4893-.27345 0-.542512-.0159-.807448-.0485 1.498808.9875 3.279588 1.5636 5.192308 1.5636 6.23001 0 9.63711-5.30285 9.63711-9.90075 0-.15106-.0033-.30079-.0098-.45052.662-.49027 1.2365-1.10376 1.6905-1.80206" fill="#6188FF"/></svg>