<svg width="15" height="13" fill="none" xmlns="http://www.w3.org/2000/svg"><path d="M5.81972 12.0232c-.43781 0-.36342-.1581-.51442-.5568L4.01782 7.41344l9.91048-5.62361" fill="#9399AB"/><path d="M5.81982 12.0232c.33786 0 .48714-.1478.67572-.3232l1.8019-1.6759-2.24765-1.29638" fill="#70788E"/><path d="M6.04945 8.72806l5.44625 3.84874c.6215.328 1.07.1582 1.2248-.5519l2.2169-9.99244c.227-.8704-.3468-1.26517-.9414-1.00699L.978404 5.82666c-.8885738.3409-.8833935.81507-.161968 1.02635l3.340614.99731 7.73385-4.66697c.3651-.21177.7002-.09792.4252.13556" fill="#6188FF"/></svg>