<svg width="67" height="68" fill="none" xmlns="http://www.w3.org/2000/svg"><path d="M2 33.625C2 16.159 16.2412 2 33.8085 2c3.2378 0 6.3627.48098 9.3062 1.375" stroke="#fff" stroke-width="4" stroke-linecap="round" stroke-linejoin="round"/><path fill-rule="evenodd" clip-rule="evenodd" d="M26.9628 40.4307c3.7808 3.7588 9.9102 3.7588 13.6909 0 3.7806-3.7588 19.431-30.1808 18.0481-31.55576-1.383-1.375-27.9582 14.18526-31.739 17.94406-3.7805 3.7588-3.7805 9.8529 0 13.6117zm6.8452-4.0556c1.5276 0 2.7662-1.2312 2.7662-2.75s-1.2386-2.75-2.7662-2.75c-1.5275 0-2.7658 1.2312-2.7658 2.75s1.2383 2.75 2.7658 2.75z" fill="#fff"/><ellipse cx="6.14901" cy="50.125" rx="2.76596" ry="2.75" fill="#fff"/><ellipse cx="17.2127" cy="61.125" rx="2.76596" ry="2.75" fill="#fff"/><ellipse cx="33.8084" cy="65.25" rx="2.76596" ry="2.75" fill="#fff"/><ellipse cx="50.4041" cy="61.125" rx="2.76596" ry="2.75" fill="#fff"/><ellipse cx="60.085" cy="50.125" rx="2.76596" ry="2.75" fill="#fff"/><ellipse cx="64.234" cy="33.625" rx="2.76596" ry="2.75" fill="#fff"/></svg>